<?xml version="1.0" encoding="UTF-8" standalone="no"?>
<!DOCTYPE svg PUBLIC "-//W3C//DTD SVG 1.1//EN" "http://www.w3.org/Graphics/SVG/1.1/DTD/svg11.dtd">
<svg width="100%" height="100%" viewBox="0 0 253 384" version="1.1" xmlns="http://www.w3.org/2000/svg" xmlns:xlink="http://www.w3.org/1999/xlink" xml:space="preserve" xmlns:serif="http://www.serif.com/" style="fill-rule:evenodd;clip-rule:evenodd;stroke-linejoin:round;stroke-miterlimit:2;">
    <g transform="matrix(1,0,0,1,85.4713,-1943.15)">
        <g transform="matrix(1,0,0,2.27307,-24,-2368.91)">
            <g id="frite_jaune" transform="matrix(0.910656,0.181766,-0.413166,0.400628,104.663,1954.24)">
                <g transform="matrix(1,0,0,1,-37.185,-125.955)">
                    <clipPath id="_clip1">
                        <rect x="0" y="0" width="74.37" height="251.91"/>
                    </clipPath>
                    <g clip-path="url(#_clip1)">
                        <g id="Object">
                            <g transform="matrix(0.989349,0.145565,-0.145565,0.989349,18.73,-4.07)">
                                <rect x="17.91" y="1.48" width="38.54" height="248.95" style="fill:rgb(241,199,49);"/>
                            </g>
                            <g transform="matrix(0.989349,0.145565,-0.145565,0.989349,19.11,-5.76)">
                                <rect x="41.52" y="3.21" width="14.81" height="248.95" style="fill:rgb(234,181,49);"/>
                            </g>
                        </g>
                    </g>
                </g>
            </g>
        </g>
        <g transform="matrix(1,0,0,2.27307,-24,-2368.91)">
            <g id="frite_jaune1" serif:id="frite_jaune" transform="matrix(-0.0017232,0.439933,-0.999999,-0.000758092,64.5476,1937.79)">
                <g transform="matrix(1,0,0,1,-37.185,-125.955)">
                    <clipPath id="_clip2">
                        <rect x="0" y="0" width="74.37" height="251.91"/>
                    </clipPath>
                    <g clip-path="url(#_clip2)">
                        <g id="Object1" serif:id="Object">
                            <g transform="matrix(0.989349,0.145565,-0.145565,0.989349,18.73,-4.07)">
                                <rect x="17.91" y="1.48" width="38.54" height="248.95" style="fill:rgb(241,199,49);"/>
                            </g>
                            <g transform="matrix(0.989349,0.145565,-0.145565,0.989349,19.11,-5.76)">
                                <rect x="41.52" y="3.21" width="14.81" height="248.95" style="fill:rgb(234,181,49);"/>
                            </g>
                        </g>
                    </g>
                </g>
            </g>
        </g>
        <g transform="matrix(1,0,0,2.27307,-24,-2368.91)">
            <g id="frite_jaune2" serif:id="frite_jaune" transform="matrix(0.99974,0.0100268,-0.0227915,0.439819,144.709,2010.01)">
                <g transform="matrix(1,0,0,1,-37.185,-125.955)">
                    <clipPath id="_clip3">
                        <rect x="0" y="0" width="74.37" height="251.91"/>
                    </clipPath>
                    <g clip-path="url(#_clip3)">
                        <g id="Object2" serif:id="Object">
                            <g transform="matrix(0.989349,0.145565,-0.145565,0.989349,18.73,-4.07)">
                                <rect x="17.91" y="1.48" width="38.54" height="248.95" style="fill:rgb(241,199,49);"/>
                            </g>
                            <g transform="matrix(0.989349,0.145565,-0.145565,0.989349,19.11,-5.76)">
                                <rect x="41.52" y="3.21" width="14.81" height="248.95" style="fill:rgb(234,181,49);"/>
                            </g>
                        </g>
                    </g>
                </g>
            </g>
        </g>
    </g>
</svg>
